<svg width="66" height="58" viewBox="0 0 66 58" fill="none" xmlns="http://www.w3.org/2000/svg">
<path d="M43.369 23.1013C44.8784 22.8113 46.0355 21.8861 47.5736 21.457C60.0542 17.9766 69.2432 30.0505 63.919 41.4937C61.4223 46.8584 55.4105 49.9043 49.9307 51.3684C47.6156 51.9866 41.0744 53.8745 42.506 49.1227C43.0435 47.3401 51.0315 46.1384 53.3797 44.999C56.1187 43.6697 59.7099 40.4525 60.2017 37.3209C62.076 25.3853 48.8693 21.5971 43.0506 30.9891L38.6833 30.5733C39.2922 26.7985 39.4183 20.4667 34.594 19.4728C28.9023 18.3004 24.3516 22.6962 23.2598 27.9342C29.8367 31.5529 36.4522 36.6464 39.0445 43.9944C44.1827 58.5576 26.9654 63.4057 19.7741 50.5984C16.4583 44.6939 15.9871 38.1399 17.1218 31.5315C15.2941 30.6617 10.9106 31.726 10.1827 29.3127C8.90666 25.0828 15.6678 26.4336 18.0957 26.6183C20.6782 20.6861 24.3695 14.9878 31.4705 14.2767C36.9324 13.7298 42.9612 17.3226 43.369 23.1013ZM26.2044 51.4067C29.184 53.5917 34.4983 54.6007 35.3147 49.8418C36.3037 44.0712 27.1469 34.6792 21.8228 32.9117C20.4787 37.9472 21.7852 48.1654 26.2044 51.4067Z" fill="#E71D64"/>
<path d="M15.7285 15.1573C18.5095 12.164 18.5212 7.51751 15.6695 4.58847C14.313 3.19488 12.4244 2.28218 10.221 2.23311C10.1558 2.23132 10.0896 2.23132 10.0234 2.23132C9.95723 2.23132 9.89196 2.23132 9.82578 2.23311C7.62243 2.28218 5.73384 3.19488 4.37731 4.58847C1.52654 7.51751 1.53727 12.1631 4.31829 15.1573L10.0225 21.2973L15.7267 15.1573H15.7285Z" fill="#E71D64"/>
<path d="M10.0243 24.5779L2.6801 16.6731C-0.929858 12.7877 -0.88783 6.79666 2.77489 3.03432C4.61966 1.13932 7.10649 0.0624529 9.77662 0.00267655C9.94206 -0.000892184 10.1066 -0.000892184 10.2702 0.00267655C12.9413 0.0624529 15.4281 1.13932 17.2738 3.03432C20.9365 6.79666 20.9776 12.7877 17.3685 16.6731L10.0243 24.5779ZM10.0243 4.46092C9.97514 4.46092 9.92506 4.46092 9.87588 4.4627C7.96762 4.50553 6.70498 5.3995 5.98156 6.14269C3.97672 8.20274 3.96599 11.4967 5.95831 13.6415L10.0234 18.0168L14.0885 13.6415C16.0809 11.4967 16.071 8.20274 14.0653 6.14269C13.3419 5.3995 12.0792 4.50553 10.1701 4.4627C10.1218 4.46181 10.0726 4.46092 10.0225 4.46092H10.0243Z" fill="#4A7ABD"/>
</svg>
